<svg width="36" height="35" viewBox="0 0 36 35" fill="none" xmlns="http://www.w3.org/2000/svg">
<path d="M23.8856 15.9687V11.5937H19.5106V8.677H23.8856V4.302H26.8022V8.677H31.1772V11.5937H26.8022V15.9687H23.8856ZM29.646 30.6249C26.5106 30.6249 23.4544 29.9322 20.4774 28.5468C17.4995 27.1614 14.8624 25.3142 12.566 23.0051C10.2686 20.6961 8.42139 18.0526 7.02431 15.0747C5.62626 12.0978 4.92723 9.04159 4.92723 5.90617V5.14054C4.92723 4.87318 4.95153 4.61797 5.00014 4.37492H13.5314L14.8804 11.703L10.7241 15.8958C11.7449 17.6458 13.0273 19.2864 14.5712 20.8176C16.1141 22.3489 17.8092 23.6735 19.6564 24.7916L23.8856 20.5624L31.1772 22.0208V30.552C30.9342 30.5763 30.679 30.5948 30.4116 30.6074C30.1442 30.6191 29.889 30.6249 29.646 30.6249ZM9.33869 13.1249L11.7449 10.7187L11.1251 7.29158H7.88035C8.00188 8.28811 8.17202 9.27249 8.39077 10.2447C8.60952 11.2169 8.92549 12.177 9.33869 13.1249ZM22.3908 26.177C23.3387 26.5902 24.3051 26.9183 25.2899 27.1614C26.2738 27.4044 27.264 27.5624 28.2606 27.6353V24.427L24.8335 23.7343L22.3908 26.177Z" fill="#FDFDFD"/>
</svg>
