<svg width="36" height="35" viewBox="0 0 36 35" fill="none" xmlns="http://www.w3.org/2000/svg">
<g clip-path="url(#clip0_1_428)">
<path d="M32.6356 20.4167H29.7189V10.5554L18.1572 20.9096L6.38556 10.5233V27.7083H20.9689V30.625H4.92723C4.54045 30.625 4.16952 30.4714 3.89603 30.1979C3.62254 29.9244 3.46889 29.5534 3.46889 29.1667V5.83333C3.46889 5.44656 3.62254 5.07563 3.89603 4.80214C4.16952 4.52865 4.54045 4.375 4.92723 4.375H31.1772C31.564 4.375 31.9349 4.52865 32.2084 4.80214C32.4819 5.07563 32.6356 5.44656 32.6356 5.83333V20.4167ZM7.13077 7.29167L18.1412 17.0071L28.9926 7.29167H7.13077ZM28.2606 32.0833L23.1039 26.9267L25.1674 24.8646L28.2606 27.9592L33.4172 22.8025L35.4793 24.8646L28.2606 32.0833Z" fill="#FDFDFD"/>
</g>
<defs>
<clipPath id="clip0_1_428">
<rect width="35" height="35" fill="white" transform="translate(0.552227)"/>
</clipPath>
</defs>
</svg>
